#!OML:ASF E:\id_vita\Project 1\Capture day 1\Session 1\Female.ASF
:FULLY-SPECIFIED
:DEGREES
1251
root 27.8718 14.3652 1.82872 681.97 -80.1764 -632.914
lowerback 16.666 -2.1361 -2.96257
upperback 7.53368 -3.49065 2.58917
thorax -0.946248 -1.98061 4.99777
lowerneck -6.21306 2.14854 -1.37988
upperneck -35.4528 1.01393 0.0617772
head -10.4169 -0.515123 0.414771
rclavicle -1.66979e-014 -4.57205e-015
rhumerus 0.343413 41.0801 -89.1141
rradius 104.662
rwrist -19.2095
rhand -30.2177 -9.58635
rfingers 7.12502
rthumb -3.52765 -39.5369
lclavicle -1.66979e-014 -4.57205e-015
lhumerus 62.1801 -18.9952 80.7634
lradius 24.3065
lwrist 10.7431
lhand 8.04968 46.4269
lfingers 7.12502
lthumb 33.2743 73.3688
rfemur -100.287 -2.31041 38.7709
rtibia 30.0674
rfoot 21.6921 19.2877
rtoes 4.70346
lfemur -77.3801 -8.5681 -43.1559
ltibia 66.8238
lfoot -28.5729 11.6613
ltoes 7.19589
1252
root 27.9352 14.3652 1.82115 680.155 -80.2422 -631.697
lowerback 17.0133 -2.08388 -3.0456
upperback 7.64346 -3.45654 2.52816
thorax -1.01297 -1.97014 4.99173
lowerneck -5.47783 2.32636 -1.45265
upperneck -35.9469 1.21686 -0.140216
head -10.7496 -0.388334 0.341464
rclavicle -1.47101e-014 -3.79679e-014
rhumerus 0.551065 41.1023 -89.1516
rradius 104.567
rwrist -18.9005
rhand -29.8524 -9.90883
rfingers 7.12502
rthumb -3.17497 -39.8649
lclavicle -1.47101e-014 -3.79679e-014
lhumerus 62.1992 -18.8802 80.7607
lradius 24.1945
lwrist 10.8287
lhand -0.650415 42.0101
lfingers 7.12502
lthumb 24.9672 70.3989
rfemur -99.9401 -2.31956 36.8071
rtibia 31.0941
rfoot 20.4648 18.4308
rtoes 2.64937
lfemur -76.9416 -8.60273 -42.9939
ltibia 66.6758
lfoot -28.5071 12.8579
ltoes 5.56634
1253
root 28.0069 14.344 1.82416 678.465 -80.401 -630.221
lowerback 17.0816 -2.07371 -2.85978
upperback 7.65169 -3.42256 2.44098
thorax -1.06192 -1.94753 4.79172
lowerneck -5.87711 2.31258 -1.25061
upperneck -35.5065 1.15605 -0.34196
head -10.4949 -0.412647 0.23242
rclavicle 2.50469e-014 -2.0276e-014
rhumerus 1.05215 41.2697 -89.0392
rradius 104.288
rwrist -19.0228
rhand -29.8093 -9.93676
rfingers 7.12502
rthumb -3.1333 -39.8935
lclavicle 2.50469e-014 -2.0276e-014
lhumerus 62.2963 -18.8007 80.5347
lradius 24.0779
lwrist 10.9379
lhand 6.89036 45.6344
lfingers 7.12502
lthumb 32.1713 72.8059
rfemur -100.122 -2.15977 35.4096
rtibia 32.3421
rfoot 19.1407 17.9377
rtoes 0.779338
lfemur -77.0499 -8.80816 -42.7089
ltibia 66.6016
lfoot -28.4881 13.7801
ltoes 4.89152
1254
root 28.0786 14.3278 1.82213 676.13 -80.7788 -628.005
lowerback 16.937 -1.98003 -2.77978
upperback 7.72414 -3.29534 2.42185
thorax -0.929043 -1.88988 4.69389
lowerneck -6.33619 2.34242 -1.34244
upperneck -35.1377 1.20147 -0.346906
head -10.2673 -0.374622 0.242439
rclavicle 1.59028e-014 6.75868e-015
rhumerus 1.57517 41.4673 -88.8257
rradius 103.936
rwrist -19.0477
rhand -29.8381 -9.71562
rfingers 7.12502
rthumb -3.16115 -39.6719
lclavicle 1.59028e-014 6.75868e-015
lhumerus 62.3313 -18.5202 80.6193
lradius 23.9648
lwrist 10.7747
lhand 8.28446 46.2549
lfingers 7.12502
lthumb 33.4974 73.1488
rfemur -100.331 -1.74858 34.1476
rtibia 33.7617
rfoot 17.8746 17.5143
rtoes -0.386422
lfemur -77.3803 -8.7871 -42.2872
ltibia 66.5711
lfoot -28.4414 14.2995
ltoes 5.53559
1255
root 28.1444 14.3277 1.81511 674.08 -80.9199 -626.261
lowerback 17.0469 -1.92319 -2.85622
upperback 7.76418 -3.24237 2.39812
thorax -0.945908 -1.86816 4.70835
lowerneck -6.40918 2.41796 -1.34803
upperneck -34.968 1.29633 -0.44196
head -10.1868 -0.312104 0.201005
rclavicle -7.03698e-014 -4.96962e-015
rhumerus 1.77905 41.6212 -88.7775
rradius 103.692
rwrist -18.9948
rhand -30.0006 -9.80816
rfingers 7.12502
rthumb -3.318 -39.7621
lclavicle -7.03698e-014 -4.96962e-015
lhumerus 62.17 -18.3547 80.8298
lradius 23.8973
lwrist 10.9829
lhand -1.73087 41.7146
lfingers 7.12502
lthumb 23.9315 70.2432
rfemur -100.369 -1.57846 32.4498
rtibia 35.3123
rfoot 16.3431 16.8829
rtoes -1.93708
lfemur -77.3738 -8.83767 -41.9836
ltibia 66.5296
lfoot -28.3979 14.7204
ltoes 6.07107
1256
root 28.2097 14.3139 1.81336 670.48 -81.209 -622.761
lowerback 17.1038 -1.7829 -2.88231
upperback 7.70123 -3.06819 2.30267
thorax -1.06531 -1.77722 4.5983
lowerneck -6.11579 2.51702 -1.3754
upperneck -35.0689 1.40798 -0.584723
head -10.2782 -0.23502 0.14498
rclavicle 8.74653e-015 1.59028e-015
rhumerus 2.01369 41.724 -88.7321
rradius 103.49
rwrist -19.1339
rhand -30.11 -9.93863
rfingers 7.12502
rthumb -3.42365 -39.8909
lclavicle 8.74653e-015 1.59028e-015
lhumerus 62.0466 -18.259 80.9539
lradius 23.7735
lwrist 11.2299
lhand 9.19406 47.7206
lfingers 7.12502
lthumb 34.3615 74.4233
rfemur -100.586 -1.1092 30.8594
rtibia 36.8783
rfoot 14.5971 16.3321
rtoes -4.29263
lfemur -77.7395 -8.75321 -41.6716
ltibia 66.5658
lfoot -28.3346 15.2488
ltoes 6.2837
1257
root 28.2723 14.3087 1.8087 668.389 -81.3775 -620.875
lowerback 17.0586 -1.73096 -2.84243
upperback 7.75458 -3.00114 2.27892
thorax -0.995549 -1.74773 4.53504
lowerneck -6.13298 2.56872 -1.19559
upperneck -35.0043 1.39078 -0.925388
head -10.2439 -0.22965 -0.00992807
rclavicle 5.88403e-014 1.74931e-014
rhumerus 2.33658 41.8505 -88.5819
rradius 103.323
rwrist -19.1917
rhand -30.2892 -9.92762
rfingers 7.12502
rthumb -3.5967 -39.877
lclavicle 5.88403e-014 1.74931e-014
lhumerus 62.1327 -17.9951 81.2351
lradius 23.465
lwrist 10.9165
lhand -1.02398 43.0062
lfingers 7.12502
lthumb 24.6092 71.4442
rfemur -100.726 -0.873776 28.9549
rtibia 38.5292
rfoot 12.8688 15.4186
rtoes -6.17164
lfemur -77.9441 -8.77225 -41.382
ltibia 66.5994
lfoot -28.1868 15.7063
ltoes 6.59193
1258
root 28.3354 14.3144 1.80177 665.014 -81.7174 -617.796
lowerback 17.1638 -1.58757 -2.88153
upperback 7.83364 -2.83475 2.29244
thorax -0.979666 -1.67336 4.5469
lowerneck -6.4982 2.58201 -0.968017
upperneck -34.6672 1.34077 -1.19689
head -10.0407 -0.252767 -0.144301
rclavicle 5.56597e-015 6.95746e-015
rhumerus 2.46594 42.0514 -88.5944
rradius 103.177
rwrist -19.2314
rhand -30.6152 -9.94347
rfingers 7.12502
rthumb -3.91154 -39.8873
lclavicle 5.56597e-015 6.95746e-015
lhumerus 62.2375 -17.7656 81.3375
lradius 23.1935
lwrist 10.9219
lhand 9.04383 47.8199
lfingers 7.12502
lthumb 34.2189 74.5548
rfemur -100.694 -0.45373 27.4434
rtibia 40.1501
rfoot 11.2019 14.8257
rtoes -7.58022
lfemur -78.1276 -8.52442 -41.0294
ltibia 66.6738
lfoot -27.9924 16.113
ltoes 7.02976
1259
root 28.3984 14.3204 1.79356 663.6 -81.7631 -616.422
lowerback 17.0299 -1.60099 -2.87869
upperback 7.82995 -2.84947 2.267
thorax -0.914183 -1.68129 4.51393
lowerneck -6.57272 2.60017 -1.01896
upperneck -34.5836 1.36772 -1.18666
head -9.9957 -0.234029 -0.13307
rclavicle -8.54774e-014 -8.94531e-014
rhumerus 2.57076 42.1694 -88.6803
rradius 102.979
rwrist -19.8521
rhand -30.8754 -9.1543
rfingers 7.12502
rthumb -4.16277 -39.0934
lclavicle -8.54774e-014 -8.94531e-014
lhumerus 62.3105 -17.6515 81.3159
lradius 22.9581
lwrist 10.8466
lhand 8.99908 48.0432
lfingers 7.12502
lthumb 34.1764 74.7877
rfemur -100.998 -0.354854 25.8001
rtibia 41.7635
rfoot 9.65895 14.3033
rtoes -9.48463
lfemur -78.4401 -8.62545 -40.794
ltibia 66.7438
lfoot -27.6994 16.3446
ltoes 7.33783
1260
root 28.4557 14.3284 1.79531 661.446 -81.8173 -614.571
lowerback 17.3532 -1.6036 -2.69093
upperback 7.84015 -2.8395 2.16358
thorax -1.0889 -1.66852 4.31202
lowerneck -6.29759 2.67585 -1.0557
upperneck -34.7253 1.46448 -1.2424
head -10.0993 -0.175107 -0.154522
rclavicle 6.55989e-014 1.31198e-014
rhumerus 2.59413 41.8988 -88.8673
rradius 103.133
rwrist -19.8449
rhand -30.1966 -9.8592
rfingers 7.12502
rthumb -3.50731 -39.8101
lclavicle 6.55989e-014 1.31198e-014
lhumerus 62.3303 -17.5434 81.4588
lradius 22.6669
lwrist 10.3648
lhand 7.8191 47.4102
lfingers 7.12502
lthumb 33.055 74.3987
rfemur -100.98 -0.311936 24.3311
rtibia 43.3439
rfoot 8.16656 14.1546
rtoes -11.325
lfemur -78.44 -8.64291 -40.5856
ltibia 66.7452
lfoot -27.1849 16.6415
ltoes 7.3797
1261
root 28.5145 14.3234 1.78813 658.68 -82.1788 -611.653
lowerback 17.0043 -1.51439 -2.58045
upperback 7.80057 -2.69747 2.2028
thorax -0.966676 -1.5975 4.25074
lowerneck -6.07679 2.81932 -1.19784
upperneck -34.8557 1.64829 -1.33514
head -10.1908 -0.0580083 -0.176584
rclavicle 7.95139e-016 -4.17448e-015
rhumerus 2.50161 41.8833 -89.0228
rradius 103.284
rwrist -20.0006
rhand -30.2579 -9.75661
rfingers 7.12502
rthumb -3.5665 -39.7065
lclavicle 7.95139e-016 -4.17448e-015
lhumerus 62.2242 -17.2146 82.0088
lradius 22.3749
lwrist 9.43436
lhand 7.98538 46.8828
lfingers 7.12502
lthumb 33.2131 73.8378
rfemur -101.409 0.112995 23.1222
rtibia 44.9255
rfoot 6.70658 13.8667
rtoes -12.6622
lfemur -79.1098 -8.49783 -40.0866
ltibia 66.7673
lfoot -26.633 16.8481
ltoes 7.27353
1262
root 28.5667 14.3478 1.77655 656.622 -82.3657 -609.941
lowerback 17.2421 -1.47098 -2.55439
upperback 7.86571 -2.65066 2.24878
thorax -1.02402 -1.57892 4.28653
lowerneck -5.78901 2.93197 -1.48592
upperneck -35.0968 1.79214 -1.35562
head -10.3427 0.0480178 -0.144816
rclavicle -1.47101e-014 -5.40694e-014
rhumerus 2.48347 42.1014 -89.0626
rradius 103.207
rwrist -20.4862
rhand -30.7162 -8.61445
rfingers 7.12502
rthumb -4.0091 -38.5565
lclavicle -1.47101e-014 -5.40694e-014
lhumerus 62.0556 -16.8248 82.6749
lradius 22.1675
lwrist 8.47072
lhand -2.00135 42.4227
lfingers 7.12502
lthumb 23.6721 70.9852
rfemur -101.171 0.25741 21.8849
rtibia 46.4053
rfoot 4.81556 13.5721
rtoes -14.9068
lfemur -79.0065 -8.23549 -39.7899
ltibia 66.6241
lfoot -26.4814 16.7896
ltoes 7.49976
1263
root 28.6244 14.3736 1.7635 653.744 -82.4088 -607.187
lowerback 17.3294 -1.40558 -2.72422
upperback 7.89887 -2.5997 2.22493
thorax -1.03163 -1.56017 4.35235
lowerneck -6.21876 2.96306 -1.15611
upperneck -34.7734 1.75137 -1.68886
head -10.1285 0.018367 -0.31712
rclavicle -2.8625e-014 -5.32743e-014
rhumerus 2.57137 42.3735 -89.1198
rradius 103.076
rwrist -20.9168
rhand -31.1264 -7.43198
rfingers 7.12502
rthumb -4.40522 -37.3662
lclavicle -2.8625e-014 -5.32743e-014
lhumerus 62.0817 -16.5031 83.0627
lradius 21.875
lwrist 7.9679
lhand 7.57584 46.5229
lfingers 7.12502
lthumb 32.8236 73.5601
rfemur -101.145 0.407615 20.6388
rtibia 47.8272
rfoot 3.02701 13.5901
rtoes -18.9394
lfemur -79.1206 -7.91683 -39.7291
ltibia 66.4702
lfoot -26.4153 16.5882
ltoes 8.06302
1264
root 28.6728 14.392 1.76262 652.655 -82.3896 -606.391
lowerback 17.5956 -1.47244 -2.56308
upperback 8.06937 -2.68542 2.15479
thorax -0.991737 -1.60713 4.20869
lowerneck -6.72984 3.04338 -0.944134
upperneck -34.5786 1.7963 -1.91767
head -9.95589 0.024118 -0.433512
rclavicle -2.38542e-014 -8.55768e-014
rhumerus 2.79776 42.2618 -89.1824
rradius 103.221
rwrist -20.4321
rhand -30.7663 -7.76849
rfingers 7.12502
rthumb -4.05743 -37.7096
lclavicle -2.38542e-014 -8.55768e-014
lhumerus 62.2718 -16.1161 83.6106
lradius 21.401
lwrist 7.16941
lhand 7.11804 45.8635
lfingers 7.12502
lthumb 32.388 72.9908
rfemur -100.973 0.260442 19.5572
rtibia 49.1518
rfoot 1.2703 14.3838
rtoes -26.7498
lfemur -78.9495 -7.83686 -39.6885
ltibia 66.2252
lfoot -26.2196 16.493
ltoes 8.81365
